# xmcd CD database file
#
# Track frame offsets:
#	150
#	18724
#	33121
#	53511
#	75076
#	93772
#	113464
#	133770
#	158384
#	177056
#	195385
#
# Disc length: 2830 seconds
#
# Revision: 1
# Processed by: cddbd v1.5.2PL0 Copyright (c) Steve Scherf et al.
# Submitted via: CDex 1.70beta2
#
DISCID=680b0c0b
DTITLE=Erin Bode - Photograph - YMCJ-10002
DYEAR=2010
DGENRE=Classical
TTITLE0=The Mountain
TTITLE1=Heart of Mine
TTITLE2=To Lose
TTITLE3=Stephanie Moore
TTITLE4=November
TTITLE5=The Letter
TTITLE6=Joseph
TTITLE7=Photograph
TTITLE8=Beating on the Door
TTITLE9=Telescope
TTITLE10=Wise Man
EXTD=YEAR: 2010
EXTT0=
EXTT1=
EXTT2=
EXTT3=
EXTT4=
EXTT5=
EXTT6=
EXTT7=
EXTT8=
EXTT9=
EXTT10=
PLAYORDER=
